HIERARCHY
ROOT Hips
{
	OFFSET 0.000000 83.214638 0.000000
	CHANNELS 6 Xposition Yposition Zposition Xrotation Yrotation Zrotation
	JOINT Pelvis
	{
		OFFSET 0.000000 0.000000 0.000000
		CHANNELS 3 Xrotation Yrotation Zrotation
		JOINT LeftUpLeg
		{
			OFFSET 8.479700 -4.795502 -0.379100
			CHANNELS 3 Xrotation Yrotation Zrotation
			JOINT LeftLeg
			{
				OFFSET 0.024144 -32.555107 0.112900
				CHANNELS 3 Xrotation Yrotation Zrotation
				JOINT LeftFoot
				{
					OFFSET -0.024144 -32.638630 -3.012600
					CHANNELS 3 Xrotation Yrotation Zrotation
					JOINT LeftToeBase
					{
						OFFSET 0.970200 -13.225400 11.864200
						CHANNELS 3 Xrotation Yrotation Zrotation
						End Site
						{
							OFFSET 0.000000 12.319262 0.000000
						}
					}
					JOINT LFootTongue
					{
						OFFSET 1.142400 -1.059800 6.665200
						CHANNELS 3 Xrotation Yrotation Zrotation
						End Site
						{
							OFFSET 0.000000 12.319262 0.000000
						}
					}
				}
				JOINT LeftPantLeg
				{
					OFFSET 0.918482 -16.533964 -2.284700
					CHANNELS 3 Xrotation Yrotation Zrotation
					End Site
					{
						OFFSET 0.350399 24.744368 0.000000
					}
				}
			}
		}
		JOINT RightUpLeg
		{
			OFFSET -8.479700 -4.795502 -0.379100
			CHANNELS 3 Xrotation Yrotation Zrotation
			JOINT RightLeg
			{
				OFFSET -0.023144 -32.555092 0.112900
				CHANNELS 3 Xrotation Yrotation Zrotation
				JOINT RightFoot
				{
					OFFSET 0.023144 -32.638641 -3.012700
					CHANNELS 3 Xrotation Yrotation Zrotation
					JOINT RightToeBase
					{
						OFFSET -0.970200 -13.225400 11.864200
						CHANNELS 3 Xrotation Yrotation Zrotation
						End Site
						{
							OFFSET 0.000000 12.319244 0.000000
						}
					}
					JOINT RFootTongue
					{
						OFFSET -1.142200 -1.059800 6.665200
						CHANNELS 3 Xrotation Yrotation Zrotation
						End Site
						{
							OFFSET 0.000000 12.319243 0.000000
						}
					}
				}
				JOINT RightPantLeg
				{
					OFFSET -0.919482 -16.533978 -2.284800
					CHANNELS 3 Xrotation Yrotation Zrotation
					End Site
					{
						OFFSET -0.350400 24.744419 0.000000
					}
				}
			}
		}
	}
	JOINT Spine
	{
		OFFSET 0.000000 7.722000 1.166200
		CHANNELS 3 Xrotation Yrotation Zrotation
		JOINT Spine1
		{
			OFFSET 0.000000 12.024101 0.248800
			CHANNELS 3 Xrotation Yrotation Zrotation
			JOINT Spine2
			{
				OFFSET 0.000000 11.502998 -0.491200
				CHANNELS 3 Xrotation Yrotation Zrotation
				JOINT Neck
				{
					OFFSET 0.000000 18.430702 -3.123100
					CHANNELS 3 Xrotation Yrotation Zrotation
					JOINT Head
					{
						OFFSET 0.000000 9.051102 1.034000
						CHANNELS 3 Xrotation Yrotation Zrotation
						JOINT HairB
						{
							OFFSET 0.208400 24.786102 24.822300
							CHANNELS 3 Xrotation Yrotation Zrotation
							End Site
							{
								OFFSET 0.000000 32.263779 0.000000
							}
						}
						JOINT HairA
						{
							OFFSET -7.081100 24.428299 23.196600
							CHANNELS 3 Xrotation Yrotation Zrotation
							End Site
							{
								OFFSET 0.000000 32.263779 0.000000
							}
						}
						JOINT Hat
						{
							OFFSET 16.728800 15.048294 -15.439601
							CHANNELS 3 Xrotation Yrotation Zrotation
							End Site
							{
								OFFSET 0.000000 32.263779 0.000000
							}
						}
					}
				}
				JOINT LeftShoulder
				{
					OFFSET 6.197800 13.665199 -4.064700
					CHANNELS 3 Xrotation Yrotation Zrotation
					JOINT LeftArm
					{
						OFFSET 7.778100 -0.187103 -1.709300
						CHANNELS 3 Xrotation Yrotation Zrotation
						JOINT LeftForeArm
						{
							OFFSET 22.049376 0.000000 0.000000
							CHANNELS 3 Xrotation Yrotation Zrotation
							JOINT LeftHand
							{
								OFFSET 23.009392 0.000000 0.000000
								CHANNELS 3 Xrotation Yrotation Zrotation
								JOINT LeftHandThumb1
								{
									OFFSET 3.507191 -2.063065 3.133727
									CHANNELS 3 Xrotation Yrotation Zrotation
									JOINT LeftHandThumb2
									{
										OFFSET 3.101337 -1.790558 1.790558
										CHANNELS 3 Xrotation Yrotation Zrotation
										JOINT LeftHandThumb3
										{
											OFFSET 3.058640 -1.765907 1.765906
											CHANNELS 3 Xrotation Yrotation Zrotation
											End Site
											{
												OFFSET -0.415260 3.926476 -0.049563
											}
										}
									}
								}
								JOINT LeftHandIndex1
								{
									OFFSET 11.334419 -0.901459 3.706815
									CHANNELS 3 Xrotation Yrotation Zrotation
									JOINT LeftHandIndex2
									{
										OFFSET 3.283112 0.000000 0.000000
										CHANNELS 3 Xrotation Yrotation Zrotation
										JOINT LeftHandIndex3
										{
											OFFSET 3.323853 0.000000 0.000000
											CHANNELS 3 Xrotation Yrotation Zrotation
											End Site
											{
												OFFSET -1.135597 3.097809 0.402452
											}
										}
									}
								}
								JOINT LeftHandMiddle1
								{
									OFFSET 11.335861 0.000000 0.000000
									CHANNELS 3 Xrotation Yrotation Zrotation
									JOINT LeftHandMiddle2
									{
										OFFSET 3.410492 0.000000 0.000000
										CHANNELS 3 Xrotation Yrotation Zrotation
										JOINT LeftHandMiddle3
										{
											OFFSET 3.312172 0.000000 0.000000
											CHANNELS 3 Xrotation Yrotation Zrotation
											End Site
											{
												OFFSET -1.150200 3.080154 0.400270
											}
										}
									}
								}
								JOINT LeftHandRing1
								{
									OFFSET 11.514786 -0.013176 -3.003090
									CHANNELS 3 Xrotation Yrotation Zrotation
									JOINT LeftHandRing2
									{
										OFFSET 3.053307 0.000000 0.000000
										CHANNELS 3 Xrotation Yrotation Zrotation
										JOINT LeftHandRing3
										{
											OFFSET 3.295807 0.000000 0.000000
											CHANNELS 3 Xrotation Yrotation Zrotation
											End Site
											{
												OFFSET -1.281006 3.013344 0.375733
											}
										}
									}
								}
								JOINT LeftHandPinky1
								{
									OFFSET 10.518692 -0.960396 -5.730441
									CHANNELS 3 Xrotation Yrotation Zrotation
									JOINT LeftHandPinky2
									{
										OFFSET 2.861649 0.000000 0.000000
										CHANNELS 3 Xrotation Yrotation Zrotation
										JOINT LeftHandPinky3
										{
											OFFSET 2.863380 0.000000 0.000000
											CHANNELS 3 Xrotation Yrotation Zrotation
											End Site
											{
												OFFSET -0.843597 2.711159 0.369971
											}
										}
									}
								}
							}
							JOINT LSleeve
							{
								OFFSET 6.676277 -0.344902 -1.011730
								CHANNELS 3 Xrotation Yrotation Zrotation
								End Site
								{
									OFFSET 0.000000 14.885353 0.000000
								}
							}
						}
					}
				}
				JOINT RightShoulder
				{
					OFFSET -6.197800 13.665199 -4.064700
					CHANNELS 3 Xrotation Yrotation Zrotation
					JOINT RightArm
					{
						OFFSET -7.778100 -0.187103 -1.709300
						CHANNELS 3 Xrotation Yrotation Zrotation
						JOINT RightForeArm
						{
							OFFSET -22.049376 0.000000 0.000000
							CHANNELS 3 Xrotation Yrotation Zrotation
							JOINT RightHand
							{
								OFFSET -23.009392 0.000000 0.000000
								CHANNELS 3 Xrotation Yrotation Zrotation
								JOINT RightHandThumb1
								{
									OFFSET -3.507191 -2.063065 3.133727
									CHANNELS 3 Xrotation Yrotation Zrotation
									JOINT RightHandThumb2
									{
										OFFSET -3.101337 -1.790558 1.790558
										CHANNELS 3 Xrotation Yrotation Zrotation
										JOINT RightHandThumb3
										{
											OFFSET -3.058640 -1.765907 1.765906
											CHANNELS 3 Xrotation Yrotation Zrotation
											End Site
											{
												OFFSET 0.415260 3.926476 -0.049563
											}
										}
									}
								}
								JOINT RightHandIndex1
								{
									OFFSET -11.334419 -0.901459 3.706815
									CHANNELS 3 Xrotation Yrotation Zrotation
									JOINT RightHandIndex2
									{
										OFFSET -3.283112 0.000000 0.000000
										CHANNELS 3 Xrotation Yrotation Zrotation
										JOINT RightHandIndex3
										{
											OFFSET -3.323853 0.000000 0.000000
											CHANNELS 3 Xrotation Yrotation Zrotation
											End Site
											{
												OFFSET 1.135597 3.097809 0.402452
											}
										}
									}
								}
								JOINT RightHandMiddle1
								{
									OFFSET -11.335861 0.000000 0.000000
									CHANNELS 3 Xrotation Yrotation Zrotation
									JOINT RightHandMiddle2
									{
										OFFSET -3.410492 0.000000 0.000000
										CHANNELS 3 Xrotation Yrotation Zrotation
										JOINT RightHandMiddle3
										{
											OFFSET -3.312172 0.000000 0.000000
											CHANNELS 3 Xrotation Yrotation Zrotation
											End Site
											{
												OFFSET 1.150200 3.080154 0.400270
											}
										}
									}
								}
								JOINT RightHandRing1
								{
									OFFSET -11.514786 -0.013176 -3.003090
									CHANNELS 3 Xrotation Yrotation Zrotation
									JOINT RightHandRing2
									{
										OFFSET -3.053307 0.000000 0.000000
										CHANNELS 3 Xrotation Yrotation Zrotation
										JOINT RightHandRing3
										{
											OFFSET -3.295807 0.000000 0.000000
											CHANNELS 3 Xrotation Yrotation Zrotation
											End Site
											{
												OFFSET 1.281006 3.013344 0.375733
											}
										}
									}
								}
								JOINT RightHandPinky1
								{
									OFFSET -10.518692 -0.960396 -5.730441
									CHANNELS 3 Xrotation Yrotation Zrotation
									JOINT RightHandPinky2
									{
										OFFSET -2.861649 0.000000 0.000000
										CHANNELS 3 Xrotation Yrotation Zrotation
										JOINT RightHandPinky3
										{
											OFFSET -2.863380 0.000000 0.000000
											CHANNELS 3 Xrotation Yrotation Zrotation
											End Site
											{
												OFFSET 0.843597 2.711159 0.369971
											}
										}
									}
								}
							}
							JOINT RSleeve
							{
								OFFSET -6.676277 -0.344902 -1.011730
								CHANNELS 3 Xrotation Yrotation Zrotation
								End Site
								{
									OFFSET 0.000000 14.885353 0.000000
								}
							}
						}
					}
				}
				JOINT Backpack
				{
					OFFSET 0.000000 -2.471497 36.677502
					CHANNELS 3 Xrotation Yrotation Zrotation
					End Site
					{
						OFFSET 0.000000 20.427315 0.000000
					}
				}
				JOINT Hood
				{
					OFFSET 0.000000 18.754097 -10.431000
					CHANNELS 3 Xrotation Yrotation Zrotation
					JOINT Hood1
					{
						OFFSET 0.000000 -5.011002 -7.685901
						CHANNELS 3 Xrotation Yrotation Zrotation
						End Site
						{
							OFFSET 0.000000 9.175140 0.000000
						}
					}
				}
				JOINT LHoodieString
				{
					OFFSET 5.250500 16.397697 3.089900
					CHANNELS 3 Xrotation Yrotation Zrotation
					JOINT LHoodieString1
					{
						OFFSET 0.257700 -6.364304 3.694600
						CHANNELS 3 Xrotation Yrotation Zrotation
						JOINT LHoodieString2
						{
							OFFSET 0.000000 -9.643799 2.679100
							CHANNELS 3 Xrotation Yrotation Zrotation
							End Site
							{
								OFFSET 0.000000 10.009018 0.000000
							}
						}
					}
				}
				JOINT RHoodieString
				{
					OFFSET -5.250500 16.397697 3.089900
					CHANNELS 3 Xrotation Yrotation Zrotation
					JOINT RHoodieString1
					{
						OFFSET -0.257700 -6.364304 3.694600
						CHANNELS 3 Xrotation Yrotation Zrotation
						JOINT RHoodieString2
						{
							OFFSET 0.000000 -9.643799 2.679100
							CHANNELS 3 Xrotation Yrotation Zrotation
							End Site
							{
								OFFSET 0.000000 10.009018 0.000000
							}
						}
					}
				}
			}
			JOINT LBackpack_Strap
			{
				OFFSET 15.223200 -7.719803 -6.610900
				CHANNELS 3 Xrotation Yrotation Zrotation
				End Site
				{
					OFFSET 0.000000 16.040596 0.000000
				}
			}
			JOINT RBackpack_Strap
			{
				OFFSET -15.223000 -7.719803 -6.610900
				CHANNELS 3 Xrotation Yrotation Zrotation
				End Site
				{
					OFFSET 0.000000 16.040596 0.000000
				}
			}
		}
	}
	JOINT BoyFacialAnim_Joint
	{
		OFFSET 1.000000 -82.208099 -1.550900
		CHANNELS 3 Xrotation Yrotation Zrotation
		End Site
		{
			OFFSET 0.000000 30.012791 0.000000
		}
	}
}
MOTION
Frames: 4
Frame Time: 0.033333
-1.036500 76.657486 -0.461127 -4.637462 -62.859467 -2.065020 -0.000000 -0.000001 -0.000000 -22.716868 13.285326 22.357909 26.519789 -1.918213 1.589911 -3.055197 -5.257705 -18.385630 0.000000 -0.000002 0.000000 0.000000 -0.000002 0.000000 -0.000001 0.000001 0.000002 -19.495621 -22.670742 -30.480949 27.415526 5.568619 -4.173060 -9.248343 -0.297816 22.011097 -0.000000 -0.000000 0.000000 -0.000000 -0.000000 0.000000 -0.000000 -0.000000 -0.000002 -0.060337 4.515271 -4.250524 0.477395 1.426383 -2.147666 0.497474 1.439012 -2.110802 2.143017 6.610316 0.879997 45.805970 59.113170 -61.615137 -0.000002 -0.000002 -0.000000 -0.000002 -0.000002 -0.000000 -0.000002 -0.000002 -0.000000 0.725485 1.298443 -7.256793 -38.150530 -7.833099 -20.014903 -0.522146 -54.635564 -0.386323 53.747332 22.196397 26.099399 40.109920 -15.297190 -0.360476 5.639875 28.097848 11.338793 0.000000 -0.000002 0.000000 6.882163 2.840040 -61.140445 8.248008 7.640089 -89.897850 -0.000000 0.000001 -0.000003 -2.345557 4.688832 -62.655224 8.754114 9.897126 -87.051253 0.000000 -0.000001 0.000002 -9.042522 10.045666 -60.766185 8.524060 9.508849 -66.893008 -0.000001 0.000000 -0.000002 -17.946978 14.754971 -51.485894 8.868475 8.667047 -84.811989 0.000000 -0.000002 -0.000001 0.000004 0.000002 0.000001 0.659377 5.103682 4.767473 8.135971 10.218444 65.903341 -19.842395 24.043642 11.887887 8.226196 14.451733 -0.500483 -2.346145 -6.100496 10.731455 2.364048 -23.806279 -8.771100 -0.000002 0.000000 -0.000002 0.200306 -1.534521 13.933559 1.983978 -4.755917 40.507219 -0.000001 -0.000001 -0.000000 0.993696 -8.925722 21.456981 6.364489 -8.950736 67.835117 -0.000001 0.000003 0.000000 4.659856 -11.353528 34.107882 6.627287 -8.295138 66.660454 -0.000000 -0.000003 0.000009 11.587726 -14.959282 50.812687 9.263750 -8.133271 70.034752 0.000002 -0.000001 0.000000 -0.000002 -0.000003 0.000001 -0.000000 -0.000002 0.000000 -0.000000 -0.000002 0.000000 -0.000000 -0.000002 0.000000 -0.000000 -0.000002 0.000000 -0.000000 -0.000002 0.000000 0.000000 -0.000002 0.000000 -0.000000 -0.000002 0.000000 -0.000000 -0.000002 0.000000 0.000000 -0.000002 0.000000 -0.000000 -0.000001 -0.000000 -0.000000 -0.000001 -0.000000 -0.000000 -0.000001 -0.000000 
-1.024205 76.653984 -0.452418 -4.467625 -62.892792 -1.861454 -0.000000 0.000000 0.000000 -22.745727 13.227691 22.259923 26.525417 -1.904388 1.590677 -3.054601 -5.147103 -18.385346 0.000000 0.000002 0.000000 0.000000 0.000002 -0.000000 -0.000001 0.000000 -0.000004 -19.596687 -22.552337 -30.524860 27.452926 5.532105 -4.162625 -9.245573 -0.316384 22.024565 -0.000000 -0.000000 -0.000000 -0.000000 -0.000000 -0.000000 0.000000 -0.000000 -0.000001 0.001082 4.497898 -4.225960 0.515782 1.413778 -2.111923 0.539473 1.426639 -2.072222 2.187869 6.617981 0.906469 45.845186 59.172155 -61.652627 0.000003 0.000001 -0.000002 0.000003 0.000001 -0.000002 0.000003 0.000001 -0.000002 0.720828 1.210446 -7.358915 -37.393674 -7.668276 -19.621103 -1.362962 -54.858488 -1.105619 57.822387 21.874666 24.545309 40.109920 -15.297192 -0.360476 5.639873 28.097850 11.338793 0.000001 0.000002 0.000001 6.882162 2.840040 -61.140445 8.248008 7.640087 -89.897850 -0.000000 0.000001 -0.000005 -2.345559 4.688831 -62.655224 8.754113 9.897124 -87.051253 0.000001 0.000001 -0.000003 -9.042522 10.045666 -60.766185 8.524061 9.508848 -66.893008 0.000000 0.000000 -0.000002 -17.946976 14.754967 -51.485891 8.868474 8.667048 -84.811989 -0.000000 0.000000 -0.000000 -0.000000 0.000000 0.000003 0.658336 5.111734 4.773379 7.961547 9.921413 65.695587 -19.924548 24.488827 12.096757 8.543587 14.534607 -0.501500 -2.346148 -6.100497 10.731452 2.364054 -23.806278 -8.771101 -0.000001 -0.000001 -0.000002 0.193894 -1.508643 13.764989 1.941417 -4.705844 40.052847 -0.000002 0.000000 0.000000 0.979190 -8.889009 21.214953 6.280147 -8.916262 67.271141 -0.000000 0.000000 -0.000004 4.618162 -11.369728 33.726241 6.547768 -8.260732 66.148060 0.000002 0.000002 0.000001 11.528975 -15.077079 50.331630 9.158678 -8.094815 69.374170 -0.000001 0.000001 0.000002 0.000003 -0.000002 0.000002 -0.000000 0.000002 0.000000 -0.000000 0.000002 0.000000 -0.000000 0.000002 0.000000 -0.000000 0.000002 0.000000 -0.000000 0.000002 0.000001 -0.000000 0.000002 0.000000 -0.000000 0.000002 0.000000 -0.000000 0.000002 0.000001 -0.000000 0.000002 0.000000 -0.000000 0.000002 -0.000000 -0.000000 0.000002 -0.000000 -0.000000 0.000000 0.000000 
-1.009822 76.649567 -0.457433 -4.216003 -62.876802 -1.596681 -0.000000 -0.000000 -0.000000 -22.829110 13.137184 22.169573 26.515339 -1.892499 1.591295 -3.027257 -5.062097 -18.386929 0.000000 0.000000 -0.000000 0.000000 0.000000 -0.000000 -0.000000 -0.000001 -0.000001 -19.706773 -22.428463 -30.537438 27.509509 5.453192 -4.150529 -9.254846 -0.360939 22.036072 0.000000 -0.000000 0.000000 0.000000 -0.000000 0.000000 -0.000001 -0.000000 0.000000 0.035659 4.461920 -4.217707 0.493568 1.401997 -2.123447 0.522622 1.415553 -2.088379 2.220566 6.620236 0.932644 45.716864 59.229604 -61.484967 -0.000002 -0.000001 -0.000001 -0.000002 -0.000001 -0.000001 -0.000002 -0.000001 -0.000001 0.707635 1.106475 -7.487917 -36.595641 -7.588827 -19.145090 -1.185183 -55.108121 -0.956579 60.691586 21.416000 23.201985 40.109920 -15.297192 -0.360478 5.639873 28.097851 11.338790 0.000000 0.000002 0.000004 6.882165 2.840039 -61.140452 8.248008 7.640089 -89.897850 -0.000002 0.000001 -0.000002 -2.345557 4.688830 -62.655231 8.754114 9.897124 -87.051253 0.000001 0.000000 0.000000 -9.042523 10.045666 -60.766178 8.524060 9.508848 -66.893001 -0.000001 0.000001 -0.000005 -17.946976 14.754971 -51.485891 8.868472 8.667046 -84.811989 0.000001 -0.000001 0.000001 0.000000 0.000001 0.000001 0.657828 5.118337 4.785453 7.860901 9.588856 65.639197 -20.008793 24.935539 12.309598 8.876288 14.610246 -0.492921 -2.346155 -6.100495 10.731453 2.364049 -23.806278 -8.771099 -0.000002 0.000001 -0.000002 0.187686 -1.483201 13.599439 1.899970 -4.656283 39.606549 -0.000001 0.000001 0.000000 0.965057 -8.852852 20.977225 6.198092 -8.881800 66.717363 0.000003 0.000002 0.000000 4.577021 -11.385329 33.351339 6.469957 -8.226281 65.644866 -0.000002 -0.000001 0.000005 11.469231 -15.191661 49.858373 9.055797 -8.055827 68.725500 0.000000 0.000000 -0.000001 -0.000002 -0.000001 -0.000000 -0.000000 0.000004 -0.000000 -0.000000 0.000004 -0.000000 -0.000000 0.000004 -0.000000 -0.000000 0.000004 -0.000000 -0.000000 0.000004 -0.000000 -0.000000 0.000001 -0.000000 -0.000000 0.000004 -0.000000 -0.000000 0.000004 -0.000000 -0.000000 0.000001 -0.000000 -0.000000 0.000002 -0.000000 -0.000000 0.000002 -0.000000 -0.000000 -0.000000 -0.000000 
-0.994430 76.646095 -0.466688 -3.938500 -62.835862 -1.314742 -0.000000 0.000002 0.000000 -22.930118 13.032510 22.080984 26.494010 -1.873344 1.592633 -2.986963 -4.997951 -18.389164 -0.000000 0.000000 0.000000 -0.000000 0.000000 0.000000 -0.000001 0.000001 0.000001 -19.816617 -22.317250 -30.539002 27.563080 5.367566 -4.140053 -9.263869 -0.417969 22.046700 0.000000 0.000000 0.000000 0.000000 0.000000 0.000000 0.000001 0.000000 0.000001 0.089669 4.411582 -4.193190 0.502867 1.383156 -2.106262 0.537181 1.398084 -2.083892 2.230548 6.618986 0.959665 45.650850 59.206060 -61.496134 0.000001 0.000002 -0.000003 0.000001 0.000002 -0.000003 0.000001 0.000002 -0.000003 0.688519 0.992756 -7.632774 -35.968507 -7.497773 -18.799822 -1.537176 -55.337438 -1.261204 63.288253 20.971442 22.132472 40.109924 -15.297190 -0.360472 5.639878 28.097850 11.338789 -0.000002 0.000002 -0.000001 6.882163 2.840042 -61.140445 8.248007 7.640089 -89.897850 -0.000001 0.000000 -0.000003 -2.345559 4.688832 -62.655224 8.754112 9.897125 -87.051253 0.000000 -0.000001 -0.000000 -9.042525 10.045666 -60.766185 8.524060 9.508848 -66.893008 -0.000000 0.000000 -0.000002 -17.946979 14.754967 -51.485891 8.868472 8.667047 -84.811989 0.000000 0.000000 -0.000000 -0.000001 -0.000000 0.000002 0.657231 5.122684 4.802334 7.691652 9.227858 65.507299 -20.095684 25.385684 12.527172 9.219257 14.676950 -0.474323 -2.346147 -6.100493 10.731451 2.364052 -23.806278 -8.771099 -0.000004 0.000001 -0.000000 0.181708 -1.458233 13.437070 1.859598 -4.607361 39.168918 -0.000002 -0.000001 -0.000000 0.951423 -8.817396 20.744123 6.118286 -8.847390 66.174158 0.000000 0.000001 0.000002 4.536678 -11.400378 32.983615 6.393892 -8.191754 65.151330 0.000001 0.000001 0.000002 11.408695 -15.303039 49.393486 8.955498 -8.016524 68.089391 -0.000001 0.000000 -0.000001 0.000003 0.000001 -0.000002 -0.000000 0.000000 0.000000 -0.000000 0.000000 0.000000 -0.000000 0.000000 0.000000 -0.000000 0.000000 0.000000 -0.000000 0.000000 0.000001 0.000000 -0.000003 -0.000000 -0.000000 0.000000 0.000000 -0.000000 0.000000 0.000001 0.000000 -0.000003 -0.000000 -0.000000 -0.000002 -0.000000 -0.000000 -0.000002 -0.000000 -0.000000 0.000002 0.000000 
